<svg width="75" height="75" viewBox="0 0 75 75" fill="none" xmlns="http://www.w3.org/2000/svg">
<path d="M63.2812 32.8125V18.75" stroke="white" stroke-linecap="round" stroke-linejoin="round"/>
<path d="M70.3125 25.7812H56.25" stroke="white" stroke-linecap="round" stroke-linejoin="round"/>
<path d="M49.2188 7.03125V16.4062" stroke="white" stroke-linecap="round" stroke-linejoin="round"/>
<path d="M53.9062 11.7188H44.5312" stroke="white" stroke-linecap="round" stroke-linejoin="round"/>
<path d="M63.4856 44.7071C58.884 45.9975 54.0219 46.0398 49.3986 44.8296C44.7753 43.6195 40.5574 41.2006 37.1781 37.8213C33.7988 34.442 31.3799 30.2241 30.1697 25.6008C28.9596 20.9774 29.0019 16.1153 30.2923 11.5138C25.7555 12.7765 21.6288 15.2058 18.3231 18.5598C15.0175 21.9137 12.6482 26.0752 11.4514 30.6298C10.2546 35.1843 10.2719 39.973 11.5017 44.5187C12.7316 49.0645 15.1309 53.2087 18.4608 56.5386C21.7907 59.8685 25.9349 62.2678 30.4807 63.4976C35.0264 64.7275 39.8151 64.7448 44.3696 63.548C48.9242 62.3511 53.0857 59.9819 56.4396 56.6762C59.7936 53.3706 62.2229 49.2439 63.4856 44.7071Z" stroke="white" stroke-linecap="round" stroke-linejoin="round"/>
</svg>
